<svg id="Layer_1" data-name="Layer 1" xmlns="http://www.w3.org/2000/svg" xmlns:xlink="http://www.w3.org/1999/xlink" width="1440" height="612" viewBox="0 0 1440 612"><defs><style>.cls-1{fill:none;}.cls-2{clip-path:url(#clip-path);}.cls-3{fill:url(#linear-gradient);}.cls-4{fill:url(#linear-gradient-2);}.cls-5{fill:url(#linear-gradient-3);}.cls-6{fill:url(#linear-gradient-4);}.cls-7{fill:url(#linear-gradient-5);}.cls-8{fill:url(#linear-gradient-6);}.cls-9{fill:url(#linear-gradient-7);}.cls-10{fill:url(#linear-gradient-8);}.cls-11{fill:url(#linear-gradient-9);}.cls-12{fill:url(#linear-gradient-10);}.cls-13{fill:url(#linear-gradient-11);}.cls-14{fill:url(#linear-gradient-12);}.cls-15{fill:url(#linear-gradient-13);}</style><clipPath id="clip-path"><rect class="cls-1" width="1440" height="612"/></clipPath><linearGradient id="linear-gradient" x1="235.84981" y1="468.97702" x2="235.84981" y2="506.90233" gradientUnits="userSpaceOnUse"><stop offset="0" stop-color="#f5f9f0"/><stop offset="0.49865" stop-color="#f2f5db"/><stop offset="0.8439" stop-color="#f1b3b1"/><stop offset="1" stop-color="#f1949d"/></linearGradient><linearGradient id="linear-gradient-2" x1="322.80272" y1="452.29031" x2="322.80272" y2="507.38172" xlink:href="#linear-gradient"/><linearGradient id="linear-gradient-3" x1="385.85838" y1="467.86457" x2="385.85838" y2="506.8042" xlink:href="#linear-gradient"/><linearGradient id="linear-gradient-4" x1="3488.13163" y1="395.74172" x2="3488.13163" y2="459.21324" gradientTransform="matrix(-1, 0, 0, 1, 4617.90095, 0)" xlink:href="#linear-gradient"/><linearGradient id="linear-gradient-5" x1="3420.12307" y1="407.13404" x2="3420.12307" y2="459.23867" gradientTransform="matrix(-1, 0, 0, 1, 4617.90095, 0)" xlink:href="#linear-gradient"/><linearGradient id="linear-gradient-6" x1="3982.18804" y1="384.17424" x2="3982.18804" y2="434.61965" gradientTransform="translate(-3297.41968)" xlink:href="#linear-gradient"/><linearGradient id="linear-gradient-7" x1="3928.13673" y1="393.22855" x2="3928.13673" y2="434.63985" gradientTransform="translate(-3297.41968)" xlink:href="#linear-gradient"/><linearGradient id="linear-gradient-8" x1="684.53568" y1="162.73445" x2="598.88122" y2="411.13238" gradientTransform="translate(113.02655 -122.25305) rotate(11.03747)" gradientUnits="userSpaceOnUse"><stop offset="0" stop-color="#fff" stop-opacity="0.7"/><stop offset="0.0116" stop-color="#fff" stop-opacity="0.67015"/><stop offset="0.07952" stop-color="#fff" stop-opacity="0.51365"/><stop offset="0.15406" stop-color="#fff" stop-opacity="0.37469"/><stop offset="0.2346" stop-color="#fff" stop-opacity="0.25784"/><stop offset="0.32305" stop-color="#fff" stop-opacity="0.16297"/><stop offset="0.42268" stop-color="#fff" stop-opacity="0.08991"/><stop offset="0.53992" stop-color="#fff" stop-opacity="0.03851"/><stop offset="0.69132" stop-color="#fff" stop-opacity="0.00867"/><stop offset="1" stop-color="#fff" stop-opacity="0"/></linearGradient><linearGradient id="linear-gradient-9" x1="1102.76408" y1="281.81178" x2="949.76032" y2="239.99075" gradientUnits="userSpaceOnUse"><stop offset="0" stop-color="#fff" stop-opacity="0.7"/><stop offset="0.03602" stop-color="#fff" stop-opacity="0.63923"/><stop offset="0.14829" stop-color="#fff" stop-opacity="0.47049"/><stop offset="0.26619" stop-color="#fff" stop-opacity="0.32536"/><stop offset="0.38867" stop-color="#fff" stop-opacity="0.20704"/><stop offset="0.51707" stop-color="#fff" stop-opacity="0.11551"/><stop offset="0.65401" stop-color="#fff" stop-opacity="0.0506"/><stop offset="0.80545" stop-color="#fff" stop-opacity="0.01217"/><stop offset="1" stop-color="#fff" stop-opacity="0"/></linearGradient><linearGradient id="linear-gradient-10" x1="865.07216" y1="188.09965" x2="765.42293" y2="230.70331" gradientUnits="userSpaceOnUse"><stop offset="0" stop-color="#fff" stop-opacity="0.7"/><stop offset="0.1875" stop-color="#fff" stop-opacity="0.49386"/><stop offset="0.37504" stop-color="#fff" stop-opacity="0.31778"/><stop offset="0.555" stop-color="#fff" stop-opacity="0.17961"/><stop offset="0.72362" stop-color="#fff" stop-opacity="0.08069"/><stop offset="0.87662" stop-color="#fff" stop-opacity="0.02082"/><stop offset="1" stop-color="#fff" stop-opacity="0"/></linearGradient><linearGradient id="linear-gradient-11" x1="617.1222" y1="-256.3848" x2="491.2929" y2="-202.58822" gradientTransform="translate(75.69288 544.27709) rotate(-4.78394)" xlink:href="#linear-gradient-10"/><linearGradient id="linear-gradient-12" x1="211.55627" y1="-389.91723" x2="-34.34953" y2="-170.94128" gradientTransform="matrix(0.87569, 0.48287, -0.48287, 0.87569, 78.80223, 538.45014)" xlink:href="#linear-gradient-10"/><linearGradient id="linear-gradient-13" x1="1328.70269" y1="-226.71452" x2="1190.5874" y2="-167.66523" gradientTransform="translate(75.69288 544.27709) rotate(-4.78394)" xlink:href="#linear-gradient-10"/></defs><title>LK-fg</title><g class="cls-2"><path class="cls-3" d="M235.84979,478.62618c-23.92573,0-43.32137,12.69412-43.32137,28.35319h86.64279C279.17121,491.3203,259.77556,478.62618,235.84979,478.62618Z"/><path class="cls-4" d="M322.80269,459.95425c-47.80506,0-86.55874,21.05381-86.55874,47.02512H409.3615C409.3615,481.00806,370.60782,459.95425,322.80269,459.95425Z"/><path class="cls-5" d="M385.85836,474.72873c-25.53664,0-46.23818,14.43907-46.23818,32.25064h92.4764C432.09658,489.1678,411.395,474.72873,385.85836,474.72873Z"/><path class="cls-6" d="M1129.76935,415.59872c42.14769,0,76.31515,18.804,76.31515,42H1053.45414C1053.45414,434.4027,1087.62161,415.59872,1129.76935,415.59872Z"/><path class="cls-7" d="M1197.7779,432.87446c24.81117,0,44.92462,11.06938,44.92462,24.72422h-89.84929C1152.85323,443.94384,1172.96668,432.87446,1197.7779,432.87446Z"/><path class="cls-8" d="M684.76833,399.956c-33.49781,0-60.65316,14.94487-60.65316,33.3804H745.42154C745.42154,414.90091,718.26619,399.956,684.76833,399.956Z"/><path class="cls-9" d="M630.717,413.68632c-19.71923,0-35.70484,8.79763-35.70484,19.65012h71.40972C666.42191,422.484,650.4363,413.68632,630.717,413.68632Z"/><g id="kihvad"><polygon class="cls-10" points="1433.994 624.469 1399.735 780.005 -95.063 128.004 -85.901 -108.384 1433.994 624.469"/><polygon class="cls-11" points="920.662 648.13 794.343 645.946 1011.517 -161.674 1150.019 -153.708 920.662 648.13"/><polygon class="cls-12" points="1005.733 639.007 799.264 638.032 488.078 -161.766 635.119 -162.543 1005.733 639.007"/><polygon class="cls-13" points="841.762 646.518 687.439 633.105 216 -23 401.211 -34.49 841.762 646.518"/><polygon class="cls-14" points="358.976 869.056 97.375 687.416 -138.634 61.886 9.368 -148.775 358.976 869.056"/><polygon class="cls-15" points="1383.719 631.966 1258.081 623.948 1011.527 -22.582 1210.986 -25.471 1383.719 631.966"/></g></g></svg>