<svg id="Layer_1" data-name="Layer 1" xmlns="http://www.w3.org/2000/svg" xmlns:xlink="http://www.w3.org/1999/xlink" width="1400" height="500" viewBox="0 0 1400 500"><defs><style>.cls-1{fill:none;}.cls-2{clip-path:url(#clip-path);}.cls-3{clip-path:url(#clip-path-2);}.cls-4{fill:url(#linear-gradient);}.cls-5{fill:url(#linear-gradient-2);}.cls-6{fill:url(#linear-gradient-3);}.cls-7{fill:url(#linear-gradient-4);}.cls-8{fill:url(#linear-gradient-5);}.cls-10,.cls-11,.cls-12,.cls-13,.cls-14,.cls-15,.cls-16,.cls-17,.cls-9{opacity:0.88;isolation:isolate;}.cls-9{fill:url(#linear-gradient-6);}.cls-10{fill:url(#linear-gradient-7);}.cls-11{fill:url(#linear-gradient-8);}.cls-12{fill:url(#linear-gradient-9);}.cls-13{fill:url(#linear-gradient-10);}.cls-14{fill:url(#linear-gradient-11);}.cls-15{fill:url(#linear-gradient-12);}.cls-16{fill:url(#linear-gradient-13);}.cls-17{fill:url(#linear-gradient-14);}</style><clipPath id="clip-path"><rect class="cls-1" width="1400" height="500"/></clipPath><clipPath id="clip-path-2"><rect class="cls-1" x="781.875" y="9.75" width="381.375" height="540.25"/></clipPath><linearGradient id="linear-gradient" x1="1086.37413" y1="1287.8624" x2="866.77633" y2="763.43501" gradientTransform="translate(0 -578)" gradientUnits="userSpaceOnUse"><stop offset="0" stop-color="#f6b271"/><stop offset="0.48134" stop-color="#e63f58"/><stop offset="1" stop-color="#131a4b"/></linearGradient><linearGradient id="linear-gradient-2" x1="946.27158" y1="627.1478" x2="1009.49021" y2="971.83985" gradientTransform="translate(0 -578)" gradientUnits="userSpaceOnUse"><stop offset="0" stop-color="#f6b271"/><stop offset="0.52982" stop-color="#e63f58"/><stop offset="1" stop-color="#131a4b"/></linearGradient><linearGradient id="linear-gradient-3" x1="885.33202" y1="790.09707" x2="1020.56909" y2="848.8184" gradientTransform="translate(56.53874 -647.00291) rotate(6.84821)" xlink:href="#linear-gradient-2"/><linearGradient id="linear-gradient-4" x1="880.27985" y1="782.06304" x2="1007.95619" y2="963.90503" xlink:href="#linear-gradient-2"/><linearGradient id="linear-gradient-5" x1="964.74951" y1="815.38654" x2="993.5703" y2="1020.6471" gradientTransform="translate(0 -578)" gradientUnits="userSpaceOnUse"><stop offset="0" stop-color="#f6b271"/><stop offset="0.08909" stop-color="#f2996b"/><stop offset="0.2453" stop-color="#ed7263"/><stop offset="0.38929" stop-color="#e9565d"/><stop offset="0.51518" stop-color="#e74559"/><stop offset="0.6092" stop-color="#e63f58"/><stop offset="0.74039" stop-color="#e63f58" stop-opacity="0.62201"/><stop offset="0.86653" stop-color="#e63f58" stop-opacity="0.28734"/><stop offset="0.95574" stop-color="#e63f58" stop-opacity="0.07978"/><stop offset="1" stop-color="#e63f58" stop-opacity="0"/></linearGradient><linearGradient id="linear-gradient-6" x1="889.84369" y1="768.67503" x2="778.11066" y2="816.10886" gradientTransform="translate(0 -578)" gradientUnits="userSpaceOnUse"><stop offset="0" stop-color="#e5343a"/><stop offset="0.07522" stop-color="#e5343a" stop-opacity="0.8544"/><stop offset="0.20504" stop-color="#e5343a" stop-opacity="0.63021"/><stop offset="0.3373" stop-color="#e5343a" stop-opacity="0.43698"/><stop offset="0.46957" stop-color="#e5343a" stop-opacity="0.2792"/><stop offset="0.60183" stop-color="#e5343a" stop-opacity="0.15677"/><stop offset="0.73412" stop-color="#e5343a" stop-opacity="0.06956"/><stop offset="0.86668" stop-color="#e5343a" stop-opacity="0.01735"/><stop offset="1" stop-color="#e5343a" stop-opacity="0"/></linearGradient><linearGradient id="linear-gradient-7" x1="553.10224" y1="763.61232" x2="441.36921" y2="811.04619" gradientTransform="matrix(1, 0, -0.08821, 1, 32.0037, -578)" xlink:href="#linear-gradient-6"/><linearGradient id="linear-gradient-8" x1="739.25275" y1="542.4566" x2="162.73992" y2="1208.08338" xlink:href="#linear-gradient-6"/><linearGradient id="linear-gradient-9" x1="971.80566" y1="729.87817" x2="834.79591" y2="873.58954" gradientTransform="translate(0 -578)" gradientUnits="userSpaceOnUse"><stop offset="0" stop-color="#ed7b62"/><stop offset="0.09091" stop-color="#ec6f5b" stop-opacity="0.82549"/><stop offset="0.21855" stop-color="#ea5f52" stop-opacity="0.60884"/><stop offset="0.34859" stop-color="#e8524b" stop-opacity="0.42214"/><stop offset="0.47858" stop-color="#e74745" stop-opacity="0.26974"/><stop offset="0.60855" stop-color="#e63f40" stop-opacity="0.1515"/><stop offset="0.73861" stop-color="#e6393d" stop-opacity="0.06722"/><stop offset="0.86893" stop-color="#e5353b" stop-opacity="0.01676"/><stop offset="1" stop-color="#e5343a" stop-opacity="0"/></linearGradient><linearGradient id="linear-gradient-10" x1="1356.56872" y1="590.16482" x2="1099.15039" y2="860.17435" xlink:href="#linear-gradient-9"/><linearGradient id="linear-gradient-11" x1="1104.72546" y1="778.9103" x2="896.0174" y2="811.70727" xlink:href="#linear-gradient-6"/><linearGradient id="linear-gradient-12" x1="986.39172" y1="770.904" x2="881.56776" y2="805.13224" xlink:href="#linear-gradient-6"/><linearGradient id="linear-gradient-13" x1="1012.4858" y1="979.26081" x2="723.46028" y2="852.32396" gradientTransform="matrix(1, 0, -0.18868, 1, 68.67925, -578)" gradientUnits="userSpaceOnUse"><stop offset="0" stop-color="#f1cf8d"/><stop offset="0.09846" stop-color="#f1cf8d" stop-opacity="0.81176"/><stop offset="0.22498" stop-color="#f1cf8d" stop-opacity="0.5988"/><stop offset="0.35393" stop-color="#f1cf8d" stop-opacity="0.41519"/><stop offset="0.48287" stop-color="#f1cf8d" stop-opacity="0.26529"/><stop offset="0.61178" stop-color="#f1cf8d" stop-opacity="0.149"/><stop offset="0.74077" stop-color="#f1cf8d" stop-opacity="0.06611"/><stop offset="0.87001" stop-color="#f1cf8d" stop-opacity="0.01648"/><stop offset="1" stop-color="#f1cf8d" stop-opacity="0"/></linearGradient><linearGradient id="linear-gradient-14" x1="1210.66004" y1="878.30082" x2="1014.2387" y2="792.03465" gradientTransform="translate(0 -578)" xlink:href="#linear-gradient-13"/></defs><title>palkyle-fg</title><g class="cls-2"><g class="cls-3"><path class="cls-4" d="M854.41541,266.19019s3.9765,49.0513,13.86492,72.35974,44.997,85.11108,48.80878,91.46792,8.04968,12.00736,8.756,18.01105,28.33564,221.61435,28.33564,221.61435l155.49871,1.493s-64.467-207.21521-70.4707-248.18152c-1.6377-11.17517-5.557-27.42038-4.32886-36.04342,2.86267-20.0991,7.21875-58.25983,7.21875-58.25983s-10.65942-20.47312-40.32464-38.48416S854.32373,250.04819,854.41541,266.19019Z"/><path class="cls-5" d="M920.46021,213.947s-6.61573-31.76578-11.419-48.71737-15.77179-54.81909-18.90747-70.16441c-1.77326-8.67784-8.87946-42.00589,6.26758-44.91782,17.81121-3.4241,24.46722,17.24067,31.54693,39.90374,8.85065,28.332,13.746,50.67578,15.57636,58.0921s10.20569,40.41333,12.12848,45.25873c3.03564,7.64981,11.48175,10.039,11.48175,10.039s5.6167-31.50321,7.76654-64.3069c2.41961-36.92059,3.48248-44.61483,4.85907-61.40923C980.80511,64.98073,988.66,51.192,999.60791,51.192s15.669,10.446,15.93933,30.96521c.37036,28.11533-1.19177,66.45056-1.19177,70.3353s-.574,66.42717-.574,66.42717,9.18213,53.23654,12.36048,68.77551-105.59424-42.0258-105.59424-42.0258Z"/><path class="cls-6" d="M849.76538,232.99648c6.29327-7.10236,21.12341-7.0669,28.8924,5.24841s28.11718,44.28184,29.44928,47.99882,4.7525,22.6239-11.69916,17.44684S855.49554,274.884,846.80957,257.6073C840.49323,245.04364,846.06219,237.17577,849.76538,232.99648Z"/><path class="cls-7" d="M891.58875,202.58411c6.41027-3.45171,23.66162-2.82526,34.25634,20.83632s21.48035,56.63273,23.58069,62.9268c3.17334,9.50964,9.46631,29.89651-.395,35.82181-8.37268,5.03085-21.41992-.92383-30.602-16.81595s-36.37524-60.94423-39.20056-75.14661S882.40662,207.52831,891.58875,202.58411Z"/><path class="cls-8" d="M1041.00159,432.73941s-6.87232-38.77466-6.12171-45.82812c3.1272-29.38538,7.29615-58.4278,10.59839-83.41565.7262-5.495-5.32068-9.96222-5.88769-10.44931-10.0929-8.67044-48.568-43.28441-61.90741-55.551-2.67206-2.45712-5.01746-3.04217-7.25281-2.839-3.18488.28953-20.37811,2.47848-29.26654,2.73932-14.50446.42561-33.76709-.08132-41.88977-.43447,0,0-11.75849,21.40833,5.90265,35.32691S961.86719,287.342,961.86719,287.342s2.55829,7.66043,7.17859,12.36054a69.43761,69.43761,0,0,0,9.773,7.76947h0s-24.01471,13.06686-28.25263,29.66528-7.60956,30.72476,3.96472,53.32687c7.40064,14.45191,14.83393,22.55088,19.23249,26.51261,2.48059,2.23425,10.11969,28.04989,10.11969,28.04989"/></g><polygon class="cls-9" points="1039.004 676.199 851.67 676.199 509.196 -196.576 685.471 -199.222 1039.004 676.199"/><polygon class="cls-10" points="624.083 671.136 436.749 671.136 171.258 -201.639 347.767 -204.285 624.083 671.136"/><polygon class="cls-11" points="912.083 671.136 259 692 -21 -64 56.25 -84.75 912.083 671.136"/><polygon class="cls-12" points="1383.419 605.357 1124.56 614.051 311.625 -40.875 532.914 -165.533 1383.419 605.357"/><polygon class="cls-13" points="1386.25 605.357 1127.391 614.051 862.333 -93.75 1127.5 -91.5 1386.25 605.357"/><polygon class="cls-14" points="991.319 671.136 856.293 671.136 787.464 -201.639 1003.414 -201.639 991.319 671.136"/><polygon class="cls-15" points="1041.236 673.457 908.473 671.136 668.142 -201.639 835.616 -199.318 1041.236 673.457"/><polygon class="cls-16" points="684 671.136 415.125 671.136 624.916 -172.02 743.084 -172.5 684 671.136"/><polygon class="cls-17" points="1018.603 671.136 880.805 671.136 1001.989 -201.639 1242 -201.639 1018.603 671.136"/></g></svg>