<svg xmlns="http://www.w3.org/2000/svg" xmlns:xlink="http://www.w3.org/1999/xlink" width="1680" height="612" viewBox="0 0 1680 612"><defs><radialGradient id="a" cx="-398.85" cy="190.69" r="714.74" gradientTransform="translate(1959) scale(2.11 1)" gradientUnits="userSpaceOnUse"><stop offset="0" stop-color="#d5ecfa" stop-opacity="0.9"/><stop offset="0.14" stop-color="#d5ecfa" stop-opacity="0.8"/><stop offset="0.44" stop-color="#d5ecfa" stop-opacity="0.54"/><stop offset="0.86" stop-color="#d5ecfa" stop-opacity="0.14"/><stop offset="1" stop-color="#d5ecfa" stop-opacity="0"/></radialGradient><linearGradient id="b" x1="1043.6" y1="323.75" x2="1137.78" y2="323.75" gradientUnits="userSpaceOnUse"><stop offset="0" stop-color="#fff" stop-opacity="0"/><stop offset="0.39" stop-color="#fff" stop-opacity="0.01"/><stop offset="0.58" stop-color="#fff" stop-opacity="0.04"/><stop offset="0.73" stop-color="#fff" stop-opacity="0.09"/><stop offset="0.85" stop-color="#fff" stop-opacity="0.16"/><stop offset="0.96" stop-color="#fff" stop-opacity="0.25"/><stop offset="1" stop-color="#fff" stop-opacity="0.3"/></linearGradient><linearGradient id="c" x1="-507.53" y1="501.43" x2="-413.35" y2="501.43" gradientTransform="translate(1608.7 -521.3) scale(1 1.6)" xlink:href="#b"/><linearGradient id="d" x1="-2436.84" y1="141.58" x2="-2342.66" y2="141.58" gradientTransform="translate(3523.3 -101.5) scale(1 2.36)" xlink:href="#b"/><linearGradient id="e" x1="-4007.38" y1="1.95" x2="-3913.2" y2="1.95" gradientTransform="translate(5049.3 239.9) scale(1 3.57)" xlink:href="#b"/><linearGradient id="f" x1="-4619.28" y1="-1517.81" x2="-4525.1" y2="-1517.81" gradientTransform="translate(5645.7 2791.6) scale(1 1.61)" xlink:href="#b"/></defs><rect x="-783.7" y="-5.5" width="2817.8" height="632.2" style="fill:#0aa0da"/><ellipse cx="1116" cy="190.7" rx="1510.7" ry="714.7" style="fill:url(#a)"/><rect x="-554.2" y="-5.5" width="2072.1" height="609.05" style="fill:none"/><rect x="1044.2" y="-217.4" width="86.9" height="1082.31" style="fill:url(#b)"/><rect x="1101.8" y="-365.5" width="86.9" height="1290.71" transform="translate(54.2 726.6) rotate(-36)" style="fill:url(#c)"/><rect x="1087.1" y="-719.3" width="86.9" height="1902.59" transform="translate(560.5 1235.5) rotate(-72)" style="fill:url(#d)"/><rect x="1042.5" y="-1194.3" width="86.9" height="2882.42" transform="translate(1186.7 1356) rotate(-108)" style="fill:url(#e)"/><rect x="1027.1" y="-307.5" width="86.9" height="1302.68" transform="translate(1734.5 1251.3) rotate(-144)" style="fill:url(#f)"/><rect x="-858.9" y="-5.5" width="2436.2" height="609.05" style="fill:none"/></svg>